<?xml version="1.0" encoding="UTF-8" standalone="no"?>
<!DOCTYPE svg PUBLIC "-//W3C//DTD SVG 1.1 Tiny//EN" "http://www.w3.org/Graphics/SVG/1.1/DTD/svg11-tiny.dtd">
<svg xmlns="http://www.w3.org/2000/svg" xmlns:xlink="http://www.w3.org/1999/xlink" baseProfile="tiny" version="1.0" width="100%" height="100%" viewBox="0 0 44 44">
<defs>
<linearGradient id="linearGradient3409">
<stop offset="0" style="stop-color:#808080;stop-opacity:1;"/>
<stop offset="1" style="stop-color:#e2e2e2;stop-opacity:1;"/>
</linearGradient>
<linearGradient id="linearGradient4895">
<stop offset="0" style="stop-color:#808080;stop-opacity:1"/>
<stop offset="1" style="stop-color:#e2e2e2;stop-opacity:1"/>
</linearGradient>
<linearGradient id="linearGradient4885">
<stop offset="0" style="stop-color:#606060;stop-opacity:1"/>
<stop offset="1" style="stop-color:#e2e2e2;stop-opacity:1"/>
</linearGradient>
<linearGradient gradientTransform="matrix(1,0,0,1.0011489,-0.9999923,-2.0517019)" gradientUnits="userSpaceOnUse" id="linearGradient4845" x1="21.516251" x2="11.999992" xlink:href="#linearGradient4885" y1="12.510414" y2="3.0481997"/>
<linearGradient gradientTransform="translate(-0.9999923,-2)" gradientUnits="userSpaceOnUse" id="linearGradient4883" x1="22.425388" x2="13.5" xlink:href="#linearGradient4895" y1="14.260905" y2="4.4999995"/>
<linearGradient gradientTransform="matrix(0.9687499,0,0,1.0518519,22.80429,-4.2632607)" gradientUnits="userSpaceOnUse" id="linearGradient3415" x1="-1" x2="8.2020302" xlink:href="#linearGradient3409" y1="31.736542" y2="40.892887"/>
</defs>
<g>
<rect fill="none" width="44" height="44"/>
<path d="M 11.000008,6.958638 C 11.000008,6.958638 10.958377,1.0000121 17.000008,1.0000121 C 23.041639,1.0000121 29.000008,1.0000121 29.000008,1.0000121 C 29.000008,1.0000121 35.000008,0.9517449 35.000008,6.958638 C 35.000008,12.965532 35.000008,37.103892 35.000008,37.103892 C 35.000008,37.103892 34.958377,43 29.000008,43 C 23.041639,43 17.000008,43 17.000008,43 C 17.000008,43 11.000008,42.950201 11.000008,36.993106 C 11.000008,31.036012 11.020823,7.067891 11.000008,6.958638 z" style="fill:url(#linearGradient4845);fill-opacity:1;fill-rule:evenodd;stroke:#000000;stroke-width:0;stroke-linecap:butt;stroke-linejoin:miter;stroke-miterlimit:4;stroke-dasharray:none;stroke-opacity:1"/>
<path d="M 12.000015,7.674894 C 12.000015,7.674894 11.961853,2.0000115 17.500013,2.0000115 C 23.038173,2.0000115 28.50001,2.0000115 28.50001,2.0000115 C 28.50001,2.0000115 34.000008,1.9540428 34.000008,7.674894 C 34.000008,13.395745 34.000008,36.384658 34.000008,36.384658 C 34.000008,36.384658 33.961847,42 28.50001,42 C 23.038173,42 17.500013,42 17.500013,42 C 17.500013,42 12.000015,41.952572 12.000015,36.279149 C 12.000015,30.605725 12.019095,7.778944 12.000015,7.674894 z" style="fill:#000000;fill-opacity:1;fill-rule:evenodd;stroke:#000000;stroke-width:0;stroke-linecap:butt;stroke-linejoin:miter;stroke-miterlimit:4;stroke-dasharray:none;stroke-opacity:1"/>
<path d="M 12.500015,8.033022 C 12.500015,8.033022 12.463588,2.5000107 17.750013,2.5000107 C 23.036438,2.5000107 28.25001,2.5000107 28.25001,2.5000107 C 28.25001,2.5000107 33.500008,2.4551914 33.500008,8.033022 C 33.500008,13.610852 33.500008,36.025042 33.500008,36.025042 C 33.500008,36.025042 33.463581,41.5 28.25001,41.5 C 23.036438,41.5 17.750013,41.5 17.750013,41.5 C 17.750013,41.5 12.500015,41.453757 12.500015,35.922171 C 12.500015,30.390583 12.518228,8.134471 12.500015,8.033022 z" style="fill:url(#linearGradient4883);fill-opacity:1;fill-rule:evenodd;stroke:#000000;stroke-width:0;stroke-linecap:butt;stroke-linejoin:miter;stroke-miterlimit:4;stroke-dasharray:none;stroke-opacity:1"/>
<path d="M 13.000014,8.391149 C 13.000014,8.391149 12.965322,3.0000109 18.000013,3.0000109 C 23.034703,3.0000109 28.00001,3.0000109 28.00001,3.0000109 C 28.00001,3.0000109 33.000008,2.9563407 33.000008,8.391149 C 33.000008,13.825958 33.000008,35.665425 33.000008,35.665425 C 33.000008,35.665425 32.965316,41 28.00001,41 C 23.034703,41 18.000013,41 18.000013,41 C 18.000013,41 13.000014,40.954943 13.000014,35.565192 C 13.000014,30.175439 13.01736,8.489997 13.000014,8.391149 z" style="fill:#606060;fill-opacity:1;fill-rule:evenodd;stroke:#808080;stroke-width:0;stroke-linecap:butt;stroke-linejoin:miter;stroke-miterlimit:4;stroke-dasharray:none;stroke-opacity:1"/>
<path d="M 15.000013,14.114298 C 15.000013,14.114298 14.972261,10.000008 19.000012,10.000008 C 23.027764,10.000008 27.000009,10.000008 27.000009,10.000008 C 27.000009,10.000008 31.000008,9.966682 31.000008,14.114298 C 31.000008,18.261914 31.000008,34.928877 31.000008,34.928877 C 31.000008,34.928877 30.972254,39 27.000009,39 C 23.027764,39 19.000012,39 19.000012,39 C 19.000012,39 15.000013,38.965614 15.000013,34.852383 C 15.000013,30.739151 15.01389,14.189732 15.000013,14.114298 z" style="fill:#000000;fill-opacity:1;fill-rule:evenodd;stroke:#808080;stroke-width:0;stroke-linecap:butt;stroke-linejoin:miter;stroke-miterlimit:4;stroke-dasharray:none;stroke-opacity:1"/>
<path d="M 15.250013,14.379175 C 15.250013,14.379175 15.223128,10.350008 19.125013,10.350008 C 23.026896,10.350008 26.875009,10.350008 26.875009,10.350008 C 26.875009,10.350008 30.750008,10.317371 30.750008,14.379175 C 30.750008,18.440978 30.750008,34.763108 30.750008,34.763108 C 30.750008,34.763108 30.723121,38.75 26.875009,38.75 C 23.026896,38.75 19.125013,38.75 19.125013,38.75 C 19.125013,38.75 15.250013,38.716326 15.250013,34.688196 C 15.250013,30.660065 15.263456,14.453049 15.250013,14.379175 z" style="fill:url(#linearGradient3415);fill-opacity:1;fill-rule:evenodd;stroke:#808080;stroke-width:0;stroke-linecap:butt;stroke-linejoin:miter;stroke-miterlimit:4;stroke-dasharray:none;stroke-opacity:1"/>
<path d="M 15.500013,14.472426 C 15.500013,14.472426 15.473995,10.500008 19.250012,10.500008 C 23.026029,10.500008 26.750009,10.500008 26.750009,10.500008 C 26.750009,10.500008 30.500008,10.467832 30.500008,14.472426 C 30.500008,18.477021 30.500008,34.569261 30.500008,34.569261 C 30.500008,34.569261 30.473988,38.5 26.750009,38.5 C 23.026029,38.5 19.250012,38.5 19.250012,38.5 C 19.250012,38.5 15.500013,38.4668 15.500013,34.495405 C 15.500013,30.524008 15.513022,14.54526 15.500013,14.472426 z" style="fill:#606060;fill-opacity:1;fill-rule:evenodd;stroke:#808080;stroke-width:0;stroke-linecap:butt;stroke-linejoin:miter;stroke-miterlimit:4;stroke-dasharray:none;stroke-opacity:1"/>
<path d="M 22.500008,6.283745 C 22.500008,6.283745 22.498273,6.000001 22.750006,6.000001 C 23.001742,6.000001 23.250006,6.000001 23.250006,6.000001 C 23.250006,6.000001 23.500008,5.9977033 23.500008,6.283745 C 23.500008,6.569787 23.500008,7.719234 23.500008,7.719234 C 23.500008,7.719234 23.498273,8 23.250006,8 C 23.001742,8 22.750006,8 22.750006,8 C 22.750006,8 22.500008,7.997628 22.500008,7.713958 C 22.500008,7.430286 22.500873,6.288947 22.500008,6.283745 z" style="fill:#0000ff;fill-opacity:1;fill-rule:evenodd;stroke:#000000;stroke-width:0;stroke-linecap:butt;stroke-linejoin:miter;stroke-miterlimit:4;stroke-dasharray:none;stroke-opacity:1"/>
<path d="M 18.000008,6.283745 C 18.000008,6.283745 17.998273,6.000001 18.250006,6.000001 C 18.501742,6.000001 18.750006,6.000001 18.750006,6.000001 C 18.750006,6.000001 19.000008,5.9977035 19.000008,6.283745 C 19.000008,6.569787 19.000008,7.719234 19.000008,7.719234 C 19.000008,7.719234 18.998273,8 18.750006,8 C 18.501742,8 18.250006,8 18.250006,8 C 18.250006,8 18.000008,7.997628 18.000008,7.713958 C 18.000008,7.430286 18.000873,6.288947 18.000008,6.283745 z" style="fill:#ffffff;fill-opacity:1;fill-rule:evenodd;stroke:#000000;stroke-width:0;stroke-linecap:butt;stroke-linejoin:miter;stroke-miterlimit:4;stroke-dasharray:none;stroke-opacity:1"/>
<path d="M 27.000008,6.283745 C 27.000008,6.283745 26.998273,6.000001 27.250006,6.000001 C 27.501742,6.000001 27.750006,6.000001 27.750006,6.000001 C 27.750006,6.000001 28.000008,5.9977025 28.000008,6.283745 C 28.000008,6.569787 28.000008,7.719234 28.000008,7.719234 C 28.000008,7.719234 27.998273,8 27.750006,8 C 27.501742,8 27.250006,8 27.250006,8 C 27.250006,8 27.000008,7.997628 27.000008,7.713958 C 27.000008,7.430285 27.000873,6.288947 27.000008,6.283745 z" style="fill:#00ff00;fill-opacity:1;fill-rule:evenodd;stroke:#000000;stroke-width:0;stroke-linecap:butt;stroke-linejoin:miter;stroke-miterlimit:4;stroke-dasharray:none;stroke-opacity:1"/>
</g>
</svg>
