<?xml version="1.0" encoding="UTF-8" standalone="no"?>
<!DOCTYPE svg PUBLIC "-//W3C//DTD SVG 1.1 Tiny//EN" "http://www.w3.org/Graphics/SVG/1.1/DTD/svg11-tiny.dtd">
<svg xmlns="http://www.w3.org/2000/svg" xmlns:xlink="http://www.w3.org/1999/xlink" baseProfile="tiny" version="1.0" width="100%" height="100%" viewBox="0 0 44 44">
<defs>
<linearGradient id="linearGradient3409">
<stop offset="0" style="stop-color:#808080;stop-opacity:1;"/>
<stop offset="1" style="stop-color:#e2e2e2;stop-opacity:1;"/>
</linearGradient>
<linearGradient id="linearGradient4895">
<stop offset="0" style="stop-color:#808080;stop-opacity:1"/>
<stop offset="1" style="stop-color:#e2e2e2;stop-opacity:1"/>
</linearGradient>
<linearGradient id="linearGradient4885">
<stop offset="0" style="stop-color:#606060;stop-opacity:1"/>
<stop offset="1" style="stop-color:#e2e2e2;stop-opacity:1"/>
</linearGradient>
<linearGradient gradientUnits="userSpaceOnUse" id="linearGradient4845" x1="22" y1="12" x2="11" y2="1" xlink:href="#linearGradient4885"/>
<linearGradient gradientUnits="userSpaceOnUse" id="linearGradient4883" x1="22" y1="12" x2="12" y2="2.5" xlink:href="#linearGradient4895"/>
<linearGradient gradientUnits="userSpaceOnUse" id="linearGradient3415" x1="22" y1="23" x2="31" y2="39" xlink:href="#linearGradient4895"/>
<linearGradient gradientTransform="matrix(0.9687499,0,0,1.0518519,22.80429,-4.2632607)" gradientUnits="userSpaceOnUse" id="linearGradient3415" x1="-1" x2="8.2020302" xlink:href="#linearGradient3409" y1="31.736542" y2="40.892887"/>
</defs>
<g>
<rect fill="none" width="44" height="44"/>
<circle fill="url(#linearGradient4845)" cx="17" cy="7" r="6"/>
<circle fill="url(#linearGradient4845)" cx="29" cy="7" r="6"/>
<circle fill="url(#linearGradient4845)" cx="29" cy="37" r="6"/>
<circle fill="url(#linearGradient4845)" cx="17" cy="37" r="6"/>
<polygon fill="url(#linearGradient4845)" points="11,7 17,1 29,1 35,7 35,37 29,43 17,43 11,37"/>
<circle fill="#000000" cx="17" cy="7" r="5"/>
<circle fill="#000000" cx="29" cy="7" r="5"/>
<circle fill="#000000" cx="29" cy="37" r="5"/>
<circle fill="#000000" cx="17" cy="37" r="5"/>
<polygon fill="#000000" points="12,7 17,2 29,2 34,7 34,37 29,42 17,42 12,37"/>
<circle fill="url(#linearGradient4883)" cx="17" cy="7" r="4.5"/>
<circle fill="url(#linearGradient4883)" cx="29" cy="7" r="4.5"/>
<circle fill="url(#linearGradient4883)" cx="29" cy="37" r="4.5"/>
<circle fill="url(#linearGradient4883)" cx="17" cy="37" r="4.5"/>
<polygon fill="url(#linearGradient4883)" points="12.5,7 17,2.5 29,2.5 33.5,7 33.5,37 29,41.5 17,41.5 12.5,37"/>
<circle fill="#606060" cx="17" cy="7" r="4"/>
<circle fill="#606060" cx="29" cy="7" r="4"/>
<circle fill="#606060" cx="29" cy="37" r="4"/>
<circle fill="#606060" cx="17" cy="37" r="4"/>
<polygon fill="#606060" points="13,7 17,3 29,3 33,7 33,37 29,41 17,41 13,37"/>
<circle fill="#000000" cx="17" cy="13" r="2"/>
<circle fill="#000000" cx="29" cy="13" r="2"/>
<circle fill="#000000" cx="29" cy="37" r="2"/>
<circle fill="#000000" cx="17" cy="37" r="2"/>
<polygon fill="#000000" points="15,13 17,11 29,11 31,13 31,37 29,39 17,39 15,37"/>
<circle fill="url(#linearGradient3415)" cx="17" cy="13" r="1.75"/>
<circle fill="url(#linearGradient3415)" cx="29" cy="13" r="1.75"/>
<circle fill="url(#linearGradient3415)" cx="29" cy="37" r="1.75"/>
<circle fill="url(#linearGradient3415)" cx="17" cy="37" r="1.75"/>
<polygon fill="url(#linearGradient3415)" points="15.25,13 17,11.25 29,11.25 30.75,13 30.75,37 29,38.75 17,38.75 15.25,37"/>
<circle fill="#606060" cx="17" cy="13" r="1.5"/>
<circle fill="#606060" cx="29" cy="13" r="1.5"/>
<circle fill="#606060" cx="29" cy="37" r="1.5"/>
<circle fill="#606060" cx="17" cy="37" r="1.5"/>
<polygon fill="#606060" points="15.5,13 17,11.5 29,11.5 30.5,13 30.5,37 29,38.5 17,38.5 15.5,37"/>
<path d="M 22.500008,6.283745 C 22.500008,6.283745 22.498273,6.000001 22.750006,6.000001 C 23.001742,6.000001 23.250006,6.000001 23.250006,6.000001 C 23.250006,6.000001 23.500008,5.9977033 23.500008,6.283745 C 23.500008,6.569787 23.500008,7.719234 23.500008,7.719234 C 23.500008,7.719234 23.498273,8 23.250006,8 C 23.001742,8 22.750006,8 22.750006,8 C 22.750006,8 22.500008,7.997628 22.500008,7.713958 C 22.500008,7.430286 22.500873,6.288947 22.500008,6.283745 z" style="fill:#0000ff;fill-opacity:1;fill-rule:evenodd;stroke:#000000;stroke-width:0;stroke-linecap:butt;stroke-linejoin:miter;stroke-miterlimit:4;stroke-dasharray:none;stroke-opacity:1"/>
<path d="M 18.000008,6.283745 C 18.000008,6.283745 17.998273,6.000001 18.250006,6.000001 C 18.501742,6.000001 18.750006,6.000001 18.750006,6.000001 C 18.750006,6.000001 19.000008,5.9977035 19.000008,6.283745 C 19.000008,6.569787 19.000008,7.719234 19.000008,7.719234 C 19.000008,7.719234 18.998273,8 18.750006,8 C 18.501742,8 18.250006,8 18.250006,8 C 18.250006,8 18.000008,7.997628 18.000008,7.713958 C 18.000008,7.430286 18.000873,6.288947 18.000008,6.283745 z" style="fill:#ffffff;fill-opacity:1;fill-rule:evenodd;stroke:#000000;stroke-width:0;stroke-linecap:butt;stroke-linejoin:miter;stroke-miterlimit:4;stroke-dasharray:none;stroke-opacity:1"/>
<path d="M 27.000008,6.283745 C 27.000008,6.283745 26.998273,6.000001 27.250006,6.000001 C 27.501742,6.000001 27.750006,6.000001 27.750006,6.000001 C 27.750006,6.000001 28.000008,5.9977025 28.000008,6.283745 C 28.000008,6.569787 28.000008,7.719234 28.000008,7.719234 C 28.000008,7.719234 27.998273,8 27.750006,8 C 27.501742,8 27.250006,8 27.250006,8 C 27.250006,8 27.000008,7.997628 27.000008,7.713958 C 27.000008,7.430285 27.000873,6.288947 27.000008,6.283745 z" style="fill:#00ff00;fill-opacity:1;fill-rule:evenodd;stroke:#000000;stroke-width:0;stroke-linecap:butt;stroke-linejoin:miter;stroke-miterlimit:4;stroke-dasharray:none;stroke-opacity:1"/>
</g>
</svg>
